# xmcd
#
# Track frame offsets: 
#        150
#        14461
#        32749
#        45321
#        62463
#        82335
#        97327
#        111548
#        126709
#        143848
#        154769
#        168686
#        186045
#        202467
#        218761
#        232173
#        253065
#        271623
#        287831
#        307652
#        327489
#
# Disc length: 4595 seconds
#
# Revision: 2
# Processed by: cddbd v1.5.2PL0 Copyright (c) Steve Scherf et al.
# Submitted via: ExactAudioCopy v1.0b3
#
DISCID=4811f115
DTITLE=Jonesmann - Echte Musik
DYEAR=2008
DGENRE=R'n'B
TTITLE0=Warum bin ich hier
TTITLE1=Echte Musik (feat. Olli Banjo)
TTITLE2=Auf Wiedersehen Jungs
TTITLE3=Erzähl mir (feat. Josof and Juvel)
TTITLE4=Gegen uns (feat. Real Jay)
TTITLE5=Ghetto RnB
TTITLE6=Schreib mir (feat. Blaze)
TTITLE7=Wir halten die Stellung (feat. Criz)
TTITLE8=Wo wäre ich (feat. Manuellsen)
TTITLE9=Hinblättern (feat. Olli Banjo)
TTITLE10=Jeden Tag
TTITLE11=Ich bleib' stehen (feat. Ninjah)
TTITLE12=Wir feiern die Strasse (feat. Jasha and MC Bogy)
TTITLE13=Blickfang (feat. Blaze)
TTITLE14=Ihr seid Dreck (feat. Blaze)
TTITLE15=Blues Music (feat. Real Jay)
TTITLE16=Nicht allein sein (feat. Blaze)
TTITLE17=Echte Musik (Part 2) (feat. Jasha)
TTITLE18=Hör zu (feat. 34ers)
TTITLE19=Einmal
TTITLE20=Game Over (Remix) (feat. Azad and Sti)
EXTD=YEAR: 2008
EXTT0=
EXTT1=
EXTT2=
EXTT3=
EXTT4=
EXTT5=
EXTT6=
EXTT7=
EXTT8=
EXTT9=
EXTT10=
EXTT11=
EXTT12=
EXTT13=
EXTT14=
EXTT15=
EXTT16=
EXTT17=
EXTT18=
EXTT19=
EXTT20=
PLAYORDER=
